<?xml version="1.0" encoding="UTF-8" standalone="no"?>
<!DOCTYPE svg PUBLIC "-//W3C//DTD SVG 1.1//EN" "http://www.w3.org/Graphics/SVG/1.1/DTD/svg11.dtd">
<svg width="100%" height="100%" viewBox="0 0 1980 1988" version="1.1" xmlns="http://www.w3.org/2000/svg" xmlns:xlink="http://www.w3.org/1999/xlink" xml:space="preserve" xmlns:serif="http://www.serif.com/" style="fill-rule:evenodd;clip-rule:evenodd;stroke-linejoin:round;stroke-miterlimit:2;">
    <g>
        <path d="M508.333,166.667C383.791,245.167 261.416,354.125 187.5,483.334C203.208,463.292 227.083,441.084 233.333,425.001C240.916,422.709 243.625,432.293 250,433.334C292.208,375.667 347.5,324.667 400,275.001C679.667,37.376 1112.167,-6.374 1433.333,170.834C1546.166,229.042 1650,313.792 1729.166,416.667C1741.208,431.625 1750.583,447.625 1762.499,462.5C1770.041,469 1777.832,456 1783.332,450C1744.249,384.25 1686.832,328.25 1629.165,275C1605.165,255.917 1582.248,233.833 1558.332,216.667C1418.874,118.584 1257.207,57.25 1087.499,41.667C1035.082,38.709 982.707,35.959 929.166,37.5C779.999,48.917 638.208,95.917 508.333,166.667Z" style="fill:rgb(238,230,186);fill-rule:nonzero;"/>
    </g>
    <g>
        <path d="M1245.833,279.167C1251.041,280.417 1252.958,286.792 1258.333,287.5C1328.083,318.917 1389.25,398.875 1429.166,466.667C1429.874,468.459 1429.166,470.834 1429.166,470.834C1446.833,477.792 1454.249,481.042 1454.166,504.167C1473.916,487.75 1508.499,524.209 1533.333,516.667C1525.583,538.792 1535.666,527.584 1550,525C1547.958,534.042 1555.833,558.458 1562.5,554.167C1561.958,552.25 1561.875,547.709 1562.5,545.834C1516.292,409.042 1417.083,282.001 1291.667,204.167C1178,143 1035.084,77.584 905.542,126.375C916.209,167.208 983.792,161.625 1019.917,175.917C1099.584,197.459 1179.25,226.875 1245.834,279.167L1245.833,279.167Z" style="fill:rgb(247,234,184);fill-rule:nonzero;"/>
    </g>
    <g>
        <path d="M662.5,208.333C503.625,248.75 323.875,361.416 283.333,533.333C318,497.833 353.166,453.416 395.833,429.166C576.75,282.999 847.791,235.208 1063.416,336.583C1089.874,348.75 1141.291,384.125 1154.166,350C1172.666,356.75 1187.458,360.083 1204.166,350C1228.249,373.208 1256.166,398.708 1283.333,425C1211.75,326.25 1102.333,267.417 995.833,225C889.208,194.25 773.5,188.958 662.5,208.333Z" style="fill:rgb(248,235,184);fill-rule:nonzero;"/>
    </g>
    <g>
        <path d="M395.833,429.167C421.541,404.167 431.958,424.834 450,429.167C446.167,433.709 426.042,436.084 433.333,441.667C598.083,336.5 826.416,303.292 1004.166,395.834C1009.083,395.209 1012.749,397.626 1016.666,400.001C1137.083,456.043 1235.958,567.793 1279.166,691.668C1291.583,723.876 1301.166,756.96 1304.166,791.668C1321.374,824.543 1301.166,876.043 1329.166,904.168C1343.833,819.668 1364.458,726.918 1337.499,641.668C1323.666,593.168 1293.582,547.293 1274.999,500.001C1285.749,506.168 1289.666,499.001 1295.832,491.668C1301.082,501.46 1318.332,513.001 1329.165,500.001C1327.665,507.501 1329.998,514.251 1337.498,508.334C1325.915,477.834 1305.915,448.542 1283.331,425.001C1256.164,398.709 1228.248,373.209 1204.164,350.001C1187.456,360.084 1172.664,356.751 1154.164,350.001C1141.289,384.126 1089.872,348.751 1063.414,336.584C847.789,235.209 576.747,283.001 395.831,429.167L395.833,429.167Z" style="fill:rgb(239,210,141);fill-rule:nonzero;"/>
    </g>
    <g>
        <path d="M1391.667,437.5C1407.625,443.458 1418.167,455.5 1429.167,466.667C1389.25,398.875 1328.084,318.917 1258.334,287.5C1306.876,332.25 1357.709,380.917 1391.667,437.5Z" style="fill:rgb(225,200,135);fill-rule:nonzero;"/>
    </g>
    <g>
        <path d="M1658.333,666.667C1665.208,701.084 1665.333,749.209 1658.333,783.334L1658.333,791.667C1656.666,837.792 1646.041,884.459 1629.166,925C1630.958,931.667 1623.458,935.25 1624.999,941.667C1621.124,946.417 1620.499,952.292 1620.832,958.334C1628.29,958.917 1629.499,965.959 1633.332,975.001C1647.665,974.543 1664.79,956.501 1674.999,975.001C1678.541,953.709 1686.999,933.584 1691.666,912.501C1697.208,862.918 1706.791,814.209 1704.166,762.501C1713.708,721.126 1667.291,644.126 1733.333,645.834C1736.375,655.126 1754.541,677.751 1758.333,658.334C1733.166,528.959 1668.166,392.834 1550,320.834C1494.5,325.751 1560.208,392.626 1571.792,419.876C1618.25,494.793 1652.292,577.668 1658.334,666.668L1658.333,666.667Z" style="fill:rgb(236,207,140);fill-rule:nonzero;"/>
    </g>
    <g>
        <path d="M395.833,429.167C353.166,453.417 318,497.834 283.333,533.334C338.875,534.584 384.416,468.792 433.333,441.667C426.041,436.084 446.166,433.709 450,429.167C431.958,424.834 421.542,404.167 395.833,429.167Z" style="fill:rgb(217,177,105);fill-rule:nonzero;"/>
    </g>
    <g>
        <path d="M187.5,483.333C160.083,512.541 147.708,555.041 125,587.5C118.542,610.375 106.458,631.417 100,654.167C67.167,740.417 43.833,830.167 41.667,925L41.667,1037.5C38.375,1088.375 49.5,1135.458 58.334,1183.333C75.209,1175 55.584,1155.791 58.334,1141.666C72.584,1152.999 73.251,1210.208 83.334,1199.999C84.292,1185.374 76.209,1173.374 79.167,1158.332C59.209,1080.374 58.5,985.457 66.667,904.165C68.25,858.332 78.209,814.623 87.5,770.832C105.125,706.707 126.417,641.082 158.333,583.332C176.25,542.665 199.458,503.79 225,466.665C231.542,454.332 241.542,444.707 250,433.332C243.625,432.29 240.917,422.707 233.333,424.999C227.083,441.082 203.208,463.291 187.5,483.332L187.5,483.333Z" style="fill:rgb(226,201,143);fill-rule:nonzero;"/>
    </g>
    <g>
        <path d="M687.5,433.333L712.5,433.333C700.167,440.75 681.125,436.625 666.667,441.666C665.417,458.708 690.875,442.583 695.834,454.166C648.667,462.749 629.334,510.374 595.834,533.333C695.126,508.875 812.501,482.458 919.459,513.875C1009.376,536.75 1092.959,586.083 1158.334,654.167C1162.292,653.792 1163.251,648.917 1162.501,645.834C1087.043,466.792 866.376,407.959 687.501,433.334L687.5,433.333Z" style="fill:rgb(221,178,102);fill-rule:nonzero;"/>
    </g>
    <g>
        <path d="M133.333,1012.5C135.875,1025.708 128.125,1044.375 137.5,1054.167C147.542,1041.25 157.458,1032.834 158.333,1016.667C196.333,1033.417 203.708,957.25 233.333,975C264.375,846.458 335.083,719.667 445.833,637.5C460.5,635.333 443.916,657.833 462.625,654.042C471,657.959 484.208,651.792 483.333,666.667C500.791,651.542 510.958,670.5 529.166,658.334C523.708,673.167 492.916,679.584 495.833,691.667C614.291,599.875 771.875,552.084 920.833,579.167C1007.708,579.417 1076,640.917 1158.333,654.167C1092.958,586.084 1009.375,536.75 919.458,513.875C812.5,482.458 695.125,508.875 595.833,533.333C629.333,510.375 648.666,462.75 695.833,454.166C690.875,442.583 665.416,458.708 666.666,441.666C681.124,436.624 700.166,440.749 712.499,433.333L687.499,433.333C403.624,467.666 152.249,725.458 133.332,1012.5L133.333,1012.5Z" style="fill:rgb(238,208,138);fill-rule:nonzero;"/>
    </g>
    <g>
        <path d="M1454.167,883.333C1463.959,870.291 1462.334,854.791 1483.334,854.166C1477.751,919.499 1452.459,984.249 1416.667,1037.499C1397.25,1085.166 1347.334,1120.207 1316.667,1158.332C1337.417,1156.915 1355.792,1147.665 1375,1141.665C1455.667,1085.832 1521.375,1003.415 1554.167,912.498C1545.042,923.123 1530.75,903.915 1537.5,895.831C1526.083,895.956 1516.333,889.039 1504.167,891.664C1478.709,824.497 1513.584,738.331 1495.834,662.497C1483.834,595.58 1463.084,529.997 1429.167,470.83C1429.167,470.83 1429.875,468.455 1429.167,466.663C1418.167,455.496 1407.625,443.455 1391.667,437.496C1473.459,568.038 1494.417,733.746 1454.167,883.329L1454.167,883.333Z" style="fill:rgb(212,169,98);fill-rule:nonzero;"/>
    </g>
    <g>
        <path d="M1762.5,462.5C1797.208,512 1827.708,564.958 1850,620.833C1898.583,719.083 1921.333,830.166 1929.167,941.666C1937.625,934.291 1931.375,918.833 1933.334,908.333C1945.501,912.416 1947.126,900.625 1945.834,891.666C1942.917,831.291 1930.667,773.124 1912.501,716.666C1885.293,622.083 1842.293,529.583 1783.334,449.999C1777.834,455.999 1770.042,468.999 1762.501,462.499L1762.5,462.5Z" style="fill:rgb(230,209,154);fill-rule:nonzero;"/>
    </g>
    <g>
        <path d="M1554.167,912.5C1578.167,842.5 1592.459,769.333 1587.5,691.667C1589.458,643.459 1575.458,597.042 1562.5,554.167C1555.833,558.459 1547.958,534.042 1550,525C1535.667,527.583 1525.583,538.792 1533.333,516.667C1508.5,524.209 1473.916,487.75 1454.166,504.167C1454.249,481.042 1446.833,477.792 1429.166,470.834C1463.083,530.001 1483.833,595.584 1495.833,662.501C1513.583,738.334 1478.708,824.501 1504.166,891.668C1516.333,889.043 1526.083,895.96 1537.499,895.835C1530.749,903.918 1545.041,923.127 1554.166,912.502L1554.167,912.5Z" style="fill:rgb(240,212,144);fill-rule:nonzero;"/>
    </g>
    <g>
        <path d="M1337.5,641.667C1352.625,644.375 1346.167,639.542 1354.167,625C1353.459,659.583 1368.542,628.542 1366.667,654.167C1371.834,634.625 1387.084,653.792 1387.5,641.667C1387.375,618.042 1375.875,597.459 1370.833,575C1364.125,556.75 1355.416,539.333 1350,520.833C1343.583,518.958 1345.333,509.333 1337.5,508.333C1330,514.25 1327.667,507.5 1329.167,500C1318.334,513 1301.084,501.458 1295.834,491.667C1289.667,499 1285.751,506.167 1275.001,500C1293.584,547.292 1323.668,593.167 1337.501,641.667L1337.5,641.667Z" style="fill:rgb(224,181,107);fill-rule:nonzero;"/>
    </g>
    <g>
        <path d="M1337.5,641.667C1364.458,726.917 1343.833,819.667 1329.167,904.167C1400.5,845.542 1405.625,727.459 1387.5,641.667C1387.083,653.792 1371.833,634.625 1366.667,654.167C1368.542,628.542 1353.459,659.584 1354.167,625C1346.167,639.542 1352.625,644.375 1337.5,641.667Z" style="fill:rgb(197,149,81);fill-rule:nonzero;"/>
    </g>
    <g>
        <path d="M133.333,1012.5C115.375,1186.667 168.875,1386.208 316.666,1491.667C280.333,1401.334 230.249,1298.709 229.166,1191.667C209.499,1085.792 228.749,961.792 279.166,870.834C290.916,884.417 316.333,898.834 337.499,883.334C375.957,810.792 429.666,742.917 495.832,691.667C492.915,679.584 523.707,673.167 529.165,658.334C510.957,670.501 500.79,651.542 483.332,666.667C484.207,651.792 470.999,657.959 462.624,654.042C443.916,657.834 460.499,635.334 445.832,637.5C335.082,719.667 264.374,846.458 233.332,975C203.707,957.25 196.332,1033.417 158.332,1016.667C157.457,1032.834 147.54,1041.25 137.499,1054.167C128.124,1044.375 135.874,1025.709 133.332,1012.5L133.333,1012.5Z" style="fill:rgb(215,172,100);fill-rule:nonzero;"/>
    </g>
    <g>
        <path d="M383.333,1037.5C389.833,1037.458 389.5,1034.5 395.833,1045.833C416.625,1042.458 416.791,1013.875 436.458,1007.291C448.666,999.749 459.5,963.333 470.833,979.166C475.458,958.541 485.166,947.333 508.333,941.666C519.708,920.249 528.291,895.833 545.833,879.166C607.25,787.458 699.416,708.291 804.166,679.166C775.791,650.791 715.208,679.083 679.291,691.791C532.916,748.416 422.416,889.583 383.333,1037.499L383.333,1037.5Z" style="fill:rgb(224,189,116);fill-rule:nonzero;"/>
    </g>
    <g>
        <path d="M545.833,879.167C550.791,884.5 547.958,891.125 541.666,895.834C553.624,895.001 561.874,901.917 570.833,891.667C546.416,877.542 577.541,887.209 579.166,866.667C575.458,898.417 587.624,874.167 604.166,866.667C653.208,785.75 753.041,749.584 804.166,679.167C699.416,708.292 607.249,787.459 545.833,879.167Z" style="fill:rgb(179,131,64);fill-rule:nonzero;"/>
    </g>
    <g>
        <path d="M1770.833,1091.667C1780.791,1099.542 1774.958,1107.625 1779.166,1116.667C1826.458,1031.334 1859.166,935.584 1854.166,833.334C1859.374,834.584 1861.291,840.959 1866.666,841.667C1841.916,796.917 1825.624,871.792 1822.208,893.042C1812.958,961.459 1795.75,1027.917 1770.833,1091.667Z" style="fill:rgb(186,138,73);fill-rule:nonzero;"/>
    </g>
    <g>
        <path d="M1779.167,1116.667C1779.5,1118.709 1779.167,1120.834 1779.167,1120.834C1783.209,1132.876 1764.417,1139.042 1775,1150.001C1787.458,1134.626 1803.375,1158.918 1812.5,1133.334C1814.833,1150.626 1802.75,1153.501 1804.167,1170.834C1807.709,1157.251 1821.875,1156.126 1829.167,1166.667C1831.959,1161.667 1836,1155.917 1841.667,1154.167C1874.75,1057.209 1895.084,944.459 1866.667,841.667C1861.292,840.959 1859.375,834.584 1854.167,833.334C1859.167,935.584 1826.459,1031.334 1779.167,1116.667Z" style="fill:rgb(220,180,106);fill-rule:nonzero;"/>
    </g>
    <g>
        <path d="M1454.167,883.333C1440.125,914.791 1427.542,950.791 1412.5,983.333C1417.167,996.791 1407.833,1017.416 1425,1020.833C1421.958,1026.416 1419.417,1031.833 1416.667,1037.5C1452.459,984.25 1477.75,919.5 1483.334,854.167C1462.334,854.792 1463.959,870.292 1454.167,883.334L1454.167,883.333Z" style="fill:rgb(181,132,66);fill-rule:nonzero;"/>
    </g>
    <g>
        <path d="M1691.667,912.5C1687,933.583 1678.542,953.708 1675,975C1665.833,1007.5 1648.333,1036.208 1633.333,1066.667C1643.708,1063.834 1641.625,1050 1650,1045.834C1660.375,1060.459 1636.917,1065.167 1637.5,1079.167C1648.167,1072.375 1651.917,1071.667 1662.5,1066.667C1653.417,1091.875 1685.667,1077.75 1708.333,1066.667C1720.291,1037.667 1733.916,1006.959 1745.833,979.167C1746.791,960.209 1754,943 1758.333,925C1747.041,911.333 1765.791,890.792 1754.166,875C1736.958,899.333 1738.083,870.75 1729.166,858.333C1719.624,867.041 1715.166,882.5 1704.166,866.666C1698.958,881.499 1698.541,899.624 1691.666,912.499L1691.667,912.5Z" style="fill:rgb(199,149,77);fill-rule:nonzero;"/>
    </g>
    <g>
        <path d="M545.833,879.167C528.291,895.834 519.708,920.25 508.333,941.667C400.791,1142.625 437.208,1400.25 570.833,1579.167C579.416,1587.709 587.083,1583.209 595.833,1591.667C593.083,1571.709 562.791,1554.959 566.666,1537.5C497.999,1419.458 461.458,1274.625 487.499,1137.5C487.166,1131.458 487.791,1125.583 491.666,1120.833C503.083,1027.333 548.291,941.958 604.166,866.666C587.624,874.166 575.458,898.416 579.166,866.666C577.541,887.208 546.416,877.541 570.833,891.666C561.875,901.916 553.625,894.999 541.666,895.833C547.958,891.125 550.791,884.5 545.833,879.166L545.833,879.167Z" style="fill:rgb(157,110,52);fill-rule:nonzero;"/>
    </g>
    <g>
        <path d="M229.167,1191.667C225.042,1161.875 224.125,1131.084 225,1100C234.917,1117.542 251.083,1102.958 266.667,1104.167C268.292,1110.709 262.75,1121.75 270.834,1125C276.834,1039.917 298.584,958.458 337.501,883.333C316.334,898.833 290.918,884.416 279.168,870.833C228.751,961.791 209.501,1085.791 229.168,1191.666L229.167,1191.667Z" style="fill:rgb(190,140,71);fill-rule:nonzero;"/>
    </g>
    <g>
        <path d="M1929.167,941.667C1932.042,1008.334 1926.667,1073.084 1920.834,1137.5C1923.959,1152.417 1926.584,1123.708 1933.334,1145.833C1932.876,1138.75 1931.751,1125.666 1941.667,1133.333C1954.375,1055.416 1959.959,968.833 1945.834,891.666C1947.126,900.624 1945.501,912.416 1933.334,908.333C1931.376,918.833 1937.626,934.291 1929.167,941.666L1929.167,941.667Z" style="fill:rgb(214,181,117);fill-rule:nonzero;"/>
    </g>
    <g>
        <path d="M383.333,1037.5C352.708,1118.667 348.125,1215.958 362.5,1304.167C363.583,1334.542 378.917,1361.084 379.167,1391.667C429.042,1537.917 523.75,1683.792 662.5,1766.667C676.958,1762.75 694.75,1784.875 708.333,1791.667C719.375,1785.709 698.458,1778.584 708.333,1770.834C722.375,1768.417 711.458,1790.501 725,1791.667C723.542,1777.5 746.5,1772.167 729.167,1762.5C752.417,1775.042 770.209,1765.958 798.959,1792.708C855.751,1827.75 921.792,1846.583 983.334,1866.666C1016.459,1849.541 958.959,1823.666 941.334,1816.999C884.792,1794.957 830.751,1765.874 775.001,1741.666C774.126,1749.041 781.418,1755.708 787.501,1758.333C777.668,1763.25 774.251,1764.958 783.334,1775C703.501,1727.792 630.459,1654.875 570.834,1579.167C437.209,1400.25 400.792,1142.625 508.334,941.667C485.167,947.334 475.459,958.542 470.834,979.167C459.501,963.334 448.667,999.75 436.459,1007.292C416.792,1013.875 416.626,1042.459 395.834,1045.834C389.501,1034.501 389.834,1037.459 383.334,1037.501L383.333,1037.5Z" style="fill:rgb(206,162,91);fill-rule:nonzero;"/>
    </g>
    <g>
        <path d="M1437.5,1195.833C1479.292,1188.416 1504.833,1105.166 1554.167,1116.666C1565.875,1087.833 1608.25,1099.208 1633.334,1070.833C1633.751,1068.833 1633.334,1066.666 1633.334,1066.666C1648.334,1036.208 1665.834,1007.499 1675.001,974.999C1664.793,956.499 1647.668,974.541 1633.334,974.999C1629.501,965.957 1628.292,958.916 1620.834,958.332C1579.042,1047.624 1515.251,1129.707 1437.501,1195.832L1437.5,1195.833Z" style="fill:rgb(212,173,101);fill-rule:nonzero;"/>
    </g>
    <g>
        <path d="M1312.5,1150C1313.292,1152.75 1312.083,1158.208 1316.667,1158.333C1347.334,1120.208 1397.25,1085.166 1416.667,1037.5C1419.417,1031.833 1421.959,1026.417 1425,1020.833C1407.833,1017.416 1417.167,996.791 1412.5,983.333C1384.375,1040.375 1331,1089.125 1312.5,1150Z" style="fill:rgb(159,111,55);fill-rule:nonzero;"/>
    </g>
    <g>
        <path d="M591.667,1070.833C591.667,1070.833 592.125,1073.041 591.667,1075C579.25,1112.5 568.042,1150.958 566.667,1191.667C565.709,1228.417 566.792,1264.459 570.834,1300C570.709,1302.083 570.834,1306.25 570.834,1308.333C570.834,1310.416 570.959,1314.583 570.834,1316.666C582.584,1331.041 574.501,1357.041 587.501,1370.833C584.918,1362.75 592.501,1357.791 591.668,1350C606.043,1366.667 624.751,1352.542 637.501,1345.833C641.251,1355.083 645.793,1369.208 645.834,1350C604.876,1237.708 613.834,1103.292 662.501,995.833C671.834,1012.875 664.168,1038.166 666.668,1058.333C677.751,1037.625 675.543,958.125 638.543,1001.041C616.126,1020.333 608.626,1049.833 591.668,1070.833L591.667,1070.833Z" style="fill:rgb(150,102,48);fill-rule:nonzero;"/>
        <path d="M1691.667,912.5C1698.542,899.625 1698.959,881.5 1704.167,866.667C1715.167,882.5 1719.625,867.042 1729.167,858.334C1738.084,870.751 1736.959,899.334 1754.167,875.001C1765.792,890.793 1747.042,911.334 1758.334,925.001C1762.459,910.001 1763.792,894.376 1766.667,879.168C1772.334,807.293 1777.292,725.918 1758.334,658.335C1754.542,677.752 1736.376,655.127 1733.334,645.835C1667.292,644.127 1713.709,721.127 1704.167,762.502C1706.792,814.21 1697.209,862.919 1691.667,912.502L1691.667,912.5Z" style="fill:rgb(220,176,103);fill-rule:nonzero;"/>
    </g>
    <g>
        <path d="M645.833,1350C668.5,1416.917 713.208,1475.333 750,1533.333C726.625,1532.333 698.458,1540.875 683.333,1550C678.791,1547.083 675,1530.083 670.833,1537.5C709.125,1601.167 771.916,1654.083 833.333,1695.833C827.166,1688.583 823.083,1680.916 825,1670.833C842.542,1693.541 872.667,1643.75 901.042,1646.666C1049.459,1708.458 1228.417,1737.541 1388.417,1688.416C1427.542,1663.249 1455.292,1708.458 1489.834,1711.583C1503.626,1720.25 1546.626,1680.041 1566.667,1675C1615.167,1632.292 1660.875,1583.875 1683.334,1525C1670.876,1516.042 1643.042,1559.333 1623.959,1569.792C1546.376,1617.125 1461.667,1682.25 1370.834,1675C1393.084,1666.25 1364.667,1664.375 1362.501,1650C1373.126,1659.792 1388.501,1644.542 1370.834,1641.667C1260.876,1663.167 1133.709,1662.167 1033.334,1616.667C1021.917,1619.167 1014.751,1608.334 1004.167,1608.334C846.667,1541.251 715.167,1396.001 679.167,1229.167C678.459,1216.292 672.5,1205.25 675,1191.667C659.042,1152.542 669.833,1102.334 666.667,1058.334C664.167,1038.167 671.834,1012.876 662.5,995.834C613.833,1103.292 604.875,1237.709 645.833,1350.001L645.833,1350Z" style="fill:rgb(195,148,79);fill-rule:nonzero;"/>
    </g>
    <g>
        <path d="M1633.333,1066.667C1633.333,1066.667 1633.75,1068.834 1633.333,1070.834C1594.708,1148.834 1524.083,1217.084 1454.166,1270.834C1460.583,1272.376 1464.166,1264.876 1470.833,1266.667C1458.708,1277.084 1469.083,1278.167 1475,1287.5C1474.542,1273.75 1485.292,1270.375 1500,1266.667C1498.542,1278 1498.542,1287.375 1483.333,1287.5C1486.416,1293.875 1499.041,1290.292 1500,1300C1589.667,1246.958 1661.208,1157.792 1708.333,1066.667C1685.666,1077.75 1653.416,1091.875 1662.5,1066.667C1651.917,1071.667 1648.167,1072.375 1637.5,1079.167C1636.917,1065.167 1660.375,1060.459 1650,1045.834C1641.625,1050.001 1643.708,1063.834 1633.333,1066.667Z" style="fill:rgb(174,122,59);fill-rule:nonzero;"/>
    </g>
    <g>
        <path d="M1437.5,1195.833C1375.042,1242.708 1304.75,1282.125 1229.167,1300C1220.417,1300.625 1213.625,1306.625 1204.167,1304.167C1162.625,1323.125 1103.542,1311 1066.667,1341.667C1197.417,1384.167 1343.875,1342.542 1454.167,1270.834C1524.084,1217.084 1594.709,1148.834 1633.334,1070.834C1608.251,1099.209 1565.876,1087.834 1554.167,1116.667C1504.834,1105.167 1479.292,1188.417 1437.5,1195.834L1437.5,1195.833Z" style="fill:rgb(194,147,78);fill-rule:nonzero;"/>
    </g>
    <g>
        <path d="M1754.167,1120.833C1754.167,1120.833 1754.875,1123.208 1754.167,1125C1628,1381.042 1306.209,1523.708 1037.5,1425C1028.042,1427.25 1021.792,1418.667 1012.5,1420.833C940.292,1397.166 881.042,1341.958 812.5,1312.5C811.292,1313.417 809.417,1315.708 808.333,1316.667C809.958,1323.209 804.416,1334.25 812.5,1337.5C929.625,1502.375 1179.958,1554.083 1371.792,1484.292C1549.25,1432.334 1691.209,1279.209 1779.167,1120.834C1779.167,1120.834 1779.5,1118.709 1779.167,1116.667C1774.959,1107.625 1780.792,1099.542 1770.834,1091.667C1763.251,1098.834 1763.709,1114.25 1754.167,1120.834L1754.167,1120.833Z" style="fill:rgb(157,109,52);fill-rule:nonzero;"/>
    </g>
    <g>
        <path d="M229.167,1191.667C230.25,1298.709 280.334,1401.334 316.667,1491.667C337.959,1506.125 333.584,1467.042 333.334,1454.167C325.792,1436.709 317.751,1419.25 316.667,1400C275.584,1317.792 269.25,1220.583 270.834,1125C262.751,1121.75 268.292,1110.708 266.667,1104.167C251.084,1102.959 234.917,1117.542 225,1100C224.125,1131.083 225.042,1161.875 229.167,1191.667Z" style="fill:rgb(165,116,56);fill-rule:nonzero;"/>
    </g>
    <g>
        <path d="M812.5,1337.5C874.667,1472.958 1027.125,1541.75 1162.5,1566.667L1179.167,1566.667C1462.084,1603 1741.417,1416.334 1841.667,1154.167C1836,1155.917 1831.959,1161.667 1829.167,1166.667C1821.875,1156.125 1807.709,1157.25 1804.167,1170.834C1802.75,1153.501 1814.834,1150.626 1812.5,1133.334C1803.375,1158.917 1787.458,1134.626 1775,1150.001C1764.417,1139.043 1783.208,1132.876 1779.167,1120.834C1691.209,1279.209 1549.25,1432.334 1371.792,1484.292C1179.959,1554.084 929.625,1502.375 812.5,1337.5Z" style="fill:rgb(200,155,86);fill-rule:nonzero;"/>
    </g>
    <g>
        <path d="M1920.833,1137.5C1882.375,1382.833 1737.916,1615 1529.166,1762.5C1534.166,1770.917 1542.999,1759.75 1545.833,1766.667C1545.625,1777.834 1527.833,1780.042 1525,1791.667C1749.708,1642.25 1908.708,1396.375 1941.667,1133.334C1931.75,1125.667 1932.875,1138.751 1933.334,1145.834C1926.584,1123.709 1923.959,1152.417 1920.834,1137.501L1920.833,1137.5Z" style="fill:rgb(189,156,97);fill-rule:nonzero;"/>
    </g>
    <g>
        <path d="M58.333,1183.333C94.625,1380 198.208,1557.666 345.833,1700C347.083,1700.875 349.166,1702.833 350,1704.167C438.583,1772.584 529.625,1837.459 633.333,1879.167C627.541,1869.667 621.75,1860.334 633.333,1854.167C634.291,1853.584 633.333,1850 633.333,1850C606.375,1844.167 583.458,1827.875 558.333,1816.667C323.5,1697 144.666,1465.459 87.5,1212.5C86.583,1208.542 89.125,1201.083 83.333,1200C73.25,1210.208 72.583,1153 58.333,1141.667C55.583,1155.792 75.208,1175 58.333,1183.334L58.333,1183.333Z" style="fill:rgb(196,163,104);fill-rule:nonzero;"/>
    </g>
    <g>
        <path d="M1454.167,1270.833C1343.875,1342.541 1197.417,1384.166 1066.667,1341.666C1073.917,1376.458 1139.084,1384.874 1175,1387.499C1216.125,1389.291 1255.792,1385.874 1295.833,1383.332C1368.625,1371.749 1442.041,1345.582 1500,1299.999C1499.042,1290.291 1486.417,1293.874 1483.333,1287.499C1498.541,1287.374 1498.541,1277.999 1500,1266.666C1485.292,1270.374 1474.542,1273.749 1475,1287.499C1469.083,1278.166 1458.708,1277.082 1470.833,1266.666C1464.166,1264.874 1460.583,1272.374 1454.166,1270.833L1454.167,1270.833Z" style="fill:rgb(148,100,46);fill-rule:nonzero;"/>
    </g>
    <g>
        <path d="M587.5,1370.833C604.208,1430 630.042,1490.625 670.833,1537.5C675,1530.083 678.791,1547.083 683.333,1550C698.458,1540.875 726.625,1532.333 750,1533.333C713.208,1475.333 668.5,1416.916 645.833,1350C645.791,1369.208 641.25,1355.083 637.5,1345.833C624.75,1352.541 606.042,1366.666 591.667,1350C592.5,1357.792 584.917,1362.75 587.5,1370.833Z" style="fill:rgb(173,123,60);fill-rule:nonzero;"/>
    </g>
    <g>
        <path d="M1370.833,1641.667C1388.5,1644.542 1373.125,1659.792 1362.5,1650C1364.667,1664.375 1393.083,1666.25 1370.833,1675C1461.666,1682.25 1546.375,1617.125 1623.958,1569.792C1643.041,1559.334 1670.875,1516.042 1683.333,1525C1691.916,1520.542 1685.541,1507.833 1687.5,1500C1628.208,1504.083 1587.875,1554.917 1536.208,1577.917C1483.375,1605.042 1426.041,1625.417 1370.833,1641.667Z" style="fill:rgb(163,115,55);fill-rule:nonzero;"/>
    </g>
    <g>
        <path d="M570.833,1579.167C630.458,1654.875 703.5,1727.792 783.333,1775C774.25,1764.958 777.666,1763.25 787.5,1758.333C781.417,1755.708 774.125,1749.041 775,1741.666C695.792,1690.666 617.792,1618.166 566.667,1537.499C562.792,1554.957 593.084,1571.707 595.834,1591.666C587.084,1583.208 579.417,1587.708 570.834,1579.166L570.833,1579.167Z" style="fill:rgb(181,135,73);fill-rule:nonzero;"/>
    </g>
    <g>
        <path d="M833.333,1695.833C1003.666,1811.166 1237.916,1839.791 1429.166,1758.333C1429.166,1758.333 1431.249,1758.166 1433.333,1758.333C1478.5,1735.125 1528.875,1711.458 1566.666,1675C1546.624,1680.042 1503.624,1720.25 1489.833,1711.583C1455.291,1708.458 1427.541,1663.25 1388.416,1688.416C1228.416,1737.541 1049.458,1708.458 901.041,1646.666C872.666,1643.749 842.541,1693.541 824.999,1670.833C823.082,1680.916 827.166,1688.583 833.332,1695.833L833.333,1695.833Z" style="fill:rgb(219,179,108);fill-rule:nonzero;"/>
    </g>
    <g>
        <path d="M662.5,1766.667C754.417,1830.375 868.125,1880.084 983.333,1866.667C921.791,1846.584 855.75,1827.75 798.958,1792.709C770.208,1765.959 752.416,1775.042 729.166,1762.501C746.499,1772.168 723.541,1777.501 724.999,1791.668C711.457,1790.501 722.374,1768.418 708.332,1770.835C698.457,1778.585 719.374,1785.71 708.332,1791.668C694.749,1784.876 676.957,1762.751 662.499,1766.668L662.5,1766.667Z" style="fill:rgb(226,193,128);fill-rule:nonzero;"/>
    </g>
    <g>
        <path d="M1275,1883.333C1244.083,1888.833 1216.208,1906 1183.333,1904.166C1151.833,1915.458 1114.25,1917.708 1079.166,1920.833L1062.499,1920.833C1022.541,1927.708 968.832,1927.833 929.166,1920.833C825.624,1917.583 728.374,1888.666 633.333,1854.166C621.75,1860.333 627.541,1869.666 633.333,1879.166C714.916,1911.374 802.708,1929.791 887.5,1945.833L1062.5,1945.833C1096.917,1946.041 1129.208,1937.958 1162.5,1933.333C1174.75,1935.791 1183.708,1926.708 1195.833,1929.166C1265.458,1911.583 1337.791,1890.124 1404.166,1858.333C1411.291,1855.916 1417.124,1849.75 1424.999,1850C1457.374,1830.875 1491.957,1811.625 1524.999,1791.667C1527.832,1780.042 1545.624,1777.834 1545.832,1766.667C1542.999,1759.75 1534.165,1770.917 1529.165,1762.5C1448.915,1812.167 1365.207,1856.208 1274.998,1883.333L1275,1883.333Z" style="fill:rgb(216,188,126);fill-rule:nonzero;"/>
    </g>
</svg>
